<mxfile host="Electron" modified="2023-10-22T07:35:13.126Z" agent="Mozilla/5.0 (Windows NT 10.0; Win64; x64) AppleWebKit/537.36 (KHTML, like Gecko) draw.io/21.2.8 Chrome/112.0.5615.165 Electron/24.2.0 Safari/537.36" etag="Edylq6KZquCE_XIQfCm2" version="21.2.8" type="device">
  <diagram name="第 1 页" id="yGoahLtgZOyPqLgMBJ7a">
    <mxGraphModel dx="1450" dy="1071" grid="1" gridSize="10" guides="1" tooltips="1" connect="1" arrows="1" fold="1" page="0" pageScale="1" pageWidth="3300" pageHeight="4681" math="0" shadow="0">
      <root>
        <mxCell id="0" />
        <mxCell id="1" parent="0" />
        <mxCell id="3rcBeX1-3ET9QPWve3Xb-13" value="" style="rounded=1;whiteSpace=wrap;html=1;fontSize=16;fillColor=#eeeeee;strokeColor=none;arcSize=8;" parent="1" vertex="1">
          <mxGeometry x="-90" y="-20" width="420" height="110" as="geometry" />
        </mxCell>
        <mxCell id="3rcBeX1-3ET9QPWve3Xb-1" value="a" style="rounded=1;whiteSpace=wrap;html=1;fontSize=16;fillColor=#008a00;strokeColor=#005700;fontColor=#ffffff;" parent="1" vertex="1">
          <mxGeometry y="40" width="40" height="40" as="geometry" />
        </mxCell>
        <mxCell id="3rcBeX1-3ET9QPWve3Xb-2" value="b" style="rounded=1;whiteSpace=wrap;html=1;fontSize=16;fillColor=#008a00;strokeColor=#005700;fontColor=#ffffff;" parent="1" vertex="1">
          <mxGeometry x="40" y="40" width="40" height="40" as="geometry" />
        </mxCell>
        <mxCell id="3rcBeX1-3ET9QPWve3Xb-3" value="c" style="rounded=1;whiteSpace=wrap;html=1;fontSize=16;fillColor=#008a00;strokeColor=#005700;fontColor=#ffffff;" parent="1" vertex="1">
          <mxGeometry x="80" y="40" width="40" height="40" as="geometry" />
        </mxCell>
        <mxCell id="3rcBeX1-3ET9QPWve3Xb-4" value="d" style="rounded=1;whiteSpace=wrap;html=1;fontSize=16;fillColor=#008a00;strokeColor=#005700;fontColor=#ffffff;" parent="1" vertex="1">
          <mxGeometry x="120" y="40" width="40" height="40" as="geometry" />
        </mxCell>
        <mxCell id="3rcBeX1-3ET9QPWve3Xb-5" value="e" style="rounded=1;whiteSpace=wrap;html=1;fontSize=16;fillColor=#008a00;strokeColor=#005700;fontColor=#ffffff;" parent="1" vertex="1">
          <mxGeometry x="160" y="40" width="40" height="40" as="geometry" />
        </mxCell>
        <mxCell id="3rcBeX1-3ET9QPWve3Xb-6" value="f" style="rounded=1;whiteSpace=wrap;html=1;fontSize=16;fillColor=#008a00;strokeColor=#005700;fontColor=#ffffff;" parent="1" vertex="1">
          <mxGeometry x="200" y="40" width="40" height="40" as="geometry" />
        </mxCell>
        <mxCell id="3rcBeX1-3ET9QPWve3Xb-7" value="" style="endArrow=classic;html=1;rounded=0;fontSize=12;startSize=8;endSize=8;curved=1;" parent="1" edge="1">
          <mxGeometry width="50" height="50" relative="1" as="geometry">
            <mxPoint x="-80" y="60" as="sourcePoint" />
            <mxPoint x="-20" y="60" as="targetPoint" />
          </mxGeometry>
        </mxCell>
        <mxCell id="3rcBeX1-3ET9QPWve3Xb-8" value="lpush" style="text;html=1;strokeColor=none;fillColor=none;align=center;verticalAlign=middle;whiteSpace=wrap;rounded=0;fontSize=16;" parent="1" vertex="1">
          <mxGeometry x="-80" y="30" width="60" height="30" as="geometry" />
        </mxCell>
        <mxCell id="3rcBeX1-3ET9QPWve3Xb-9" value="" style="endArrow=classic;html=1;rounded=0;fontSize=12;startSize=8;endSize=8;curved=1;exitX=1;exitY=1;exitDx=0;exitDy=0;" parent="1" source="3rcBeX1-3ET9QPWve3Xb-10" edge="1">
          <mxGeometry width="50" height="50" relative="1" as="geometry">
            <mxPoint x="300" y="60" as="sourcePoint" />
            <mxPoint x="260" y="60.31" as="targetPoint" />
          </mxGeometry>
        </mxCell>
        <mxCell id="3rcBeX1-3ET9QPWve3Xb-10" value="rpush" style="text;html=1;strokeColor=none;fillColor=none;align=center;verticalAlign=middle;whiteSpace=wrap;rounded=0;fontSize=16;" parent="1" vertex="1">
          <mxGeometry x="260" y="30" width="60" height="30" as="geometry" />
        </mxCell>
        <mxCell id="3rcBeX1-3ET9QPWve3Xb-11" value="" style="endArrow=classic;html=1;rounded=0;fontSize=12;startSize=8;endSize=8;curved=1;" parent="1" edge="1">
          <mxGeometry width="50" height="50" relative="1" as="geometry">
            <mxPoint x="120" y="-10" as="sourcePoint" />
            <mxPoint x="120" y="30" as="targetPoint" />
          </mxGeometry>
        </mxCell>
        <mxCell id="3rcBeX1-3ET9QPWve3Xb-12" value="linsert" style="text;html=1;strokeColor=none;fillColor=none;align=center;verticalAlign=middle;whiteSpace=wrap;rounded=0;fontSize=16;" parent="1" vertex="1">
          <mxGeometry x="120" y="-10" width="60" height="30" as="geometry" />
        </mxCell>
      </root>
    </mxGraphModel>
  </diagram>
</mxfile>
